<svg width="567" height="567" viewBox="0 0 567 567" fill="none" xmlns="http://www.w3.org/2000/svg">
<g clip-path="url(#clip0_121_1910)">
<rect width="567" height="567" rx="283.5" fill="#D33030"/>
<path d="M574.362 699.571C574.362 623.057 543.967 549.677 489.864 495.574C435.76 441.47 362.38 411.075 285.867 411.075C209.353 411.075 135.973 441.47 81.8695 495.574C27.7661 549.677 -2.62889 623.057 -2.62891 699.571H89.1218C89.1218 647.391 109.85 597.348 146.747 560.451C183.644 523.554 233.687 502.826 285.867 502.826C338.047 502.826 388.089 523.554 424.986 560.451C461.883 597.348 482.611 647.391 482.611 699.571H574.362Z" fill="#FF8585"/>
<path d="M119.216 614.25H1.89062L215.505 119.07H351.2L565.111 614.25H447.785L285.723 220.621H280.982L119.216 614.25Z" fill="#FFEAEA"/>
</g>
<defs>
<clipPath id="clip0_121_1910">
<rect width="567" height="567" rx="283.5" fill="white"/>
</clipPath>
</defs>
</svg>
