<svg width="27" height="27" viewBox="0 0 27 27" fill="none" xmlns="http://www.w3.org/2000/svg">
<path d="M21.7873 9.30974V9.87224C21.7873 15.5366 17.4898 22.0279 9.62609 22.0279C7.30462 22.0329 5.03245 21.3583 3.08984 20.0872C3.42722 20.1331 3.76753 20.1537 4.10797 20.1491C6.03228 20.1544 7.90249 19.5125 9.41797 18.3266C8.52397 18.3134 7.65687 18.0188 6.93991 17.4846C6.22294 16.9504 5.69259 16.2039 5.42422 15.351C5.69051 15.4074 5.96201 15.4357 6.23422 15.4354C6.61433 15.4354 6.99273 15.3844 7.35922 15.2835C6.39092 15.0905 5.5198 14.5669 4.8949 13.8025C4.27001 13.0381 3.93019 12.0802 3.93359 11.0929V11.0366C4.52602 11.3675 5.1902 11.549 5.86859 11.5654C4.96555 10.9711 4.32351 10.0545 4.07364 9.00273C3.82377 7.95098 3.98494 6.84352 4.52422 5.90661C5.59874 7.2282 6.93936 8.30886 8.45893 9.07834C9.9785 9.84782 11.643 10.2889 13.3442 10.3729C13.26 10.0536 13.2203 9.72425 13.2261 9.39411C13.1944 8.52163 13.4324 7.66057 13.9077 6.9282C14.3829 6.19583 15.0724 5.62774 15.8821 5.30126C16.6918 4.97479 17.5825 4.90581 18.4328 5.10371C19.2832 5.30161 20.0519 5.75678 20.6342 6.40724C21.5915 6.21406 22.5097 5.86234 23.3511 5.36661C23.032 6.37426 22.3533 7.22922 21.4442 7.76849C22.2934 7.65148 23.1212 7.41278 23.9023 7.05974C23.3363 7.92916 22.6201 8.69102 21.7873 9.30974Z" stroke="white" stroke-width="0.818182" stroke-linecap="round" stroke-linejoin="round"/>
</svg>
