<svg width="17" height="17" viewBox="0 0 17 17" fill="none" xmlns="http://www.w3.org/2000/svg">
<circle cx="8.37642" cy="8.30025" r="7.66158" fill="url(#paint0_linear_152_8063)" stroke="#101010"/>
<path d="M5.15452 7.87018H11.5979M5.15452 7.87018C4.68005 7.87018 4.29541 8.2548 4.29541 8.72929V10.4475H4.80551M5.15452 7.87018L5.95126 5.45341C6.06737 5.10122 6.39635 4.86328 6.76718 4.86328H9.98523C10.3561 4.86328 10.685 5.10122 10.8011 5.45341L11.5979 7.87018M11.5979 7.87018C12.0724 7.87018 12.457 8.2548 12.457 8.72929V10.4475H11.9469M4.80551 10.4475V11.1321C4.80551 11.3471 4.9798 11.5214 5.19479 11.5214C5.40979 11.5214 5.58408 11.3471 5.58408 11.1321V10.4475M4.80551 10.4475H5.58408M11.9469 10.4475V11.1321C11.9469 11.3471 11.7726 11.5214 11.5576 11.5214C11.3426 11.5214 11.1683 11.3471 11.1683 11.1321V10.4475M11.9469 10.4475H11.1683M11.1683 10.4475H5.58408M6.22842 9.15885C6.22842 9.27745 6.13225 9.37363 6.01364 9.37363C5.89502 9.37363 5.79886 9.27745 5.79886 9.15885C5.79886 9.04025 5.89502 8.94407 6.01364 8.94407C6.13225 8.94407 6.22842 9.04025 6.22842 9.15885ZM10.9535 9.15885C10.9535 9.27745 10.8574 9.37363 10.7388 9.37363C10.6202 9.37363 10.524 9.27745 10.524 9.15885C10.524 9.04025 10.6202 8.94407 10.7388 8.94407C10.8574 8.94407 10.9535 9.04025 10.9535 9.15885Z" stroke="black" stroke-width="0.536946" stroke-linecap="round"/>
<defs>
<linearGradient id="paint0_linear_152_8063" x1="8.37642" y1="0.138672" x2="8.37642" y2="16.4618" gradientUnits="userSpaceOnUse">
<stop stop-color="#89959D"/>
<stop offset="1" stop-color="#BABEC1"/>
</linearGradient>
</defs>
</svg>
