<svg width="24" height="21" viewBox="0 0 24 21" fill="none" xmlns="http://www.w3.org/2000/svg">
<path d="M0.910156 1.27539L3.24957 2.0552C4.11889 2.34497 4.76002 3.08713 4.92041 3.98932L6.29351 11.713C6.50563 12.9061 7.54301 13.7754 8.75491 13.7754H18.2802C19.3937 13.7754 20.3729 13.039 20.6819 11.9693L22.4875 5.71924C22.9493 4.12062 21.7497 2.52539 20.0857 2.52539H8.41016M9.66016 18.1504C9.66016 19.1859 8.82069 20.0254 7.78516 20.0254C6.74962 20.0254 5.91016 19.1859 5.91016 18.1504C5.91016 17.1149 6.74962 16.2754 7.78516 16.2754C8.82069 16.2754 9.66016 17.1149 9.66016 18.1504ZM19.6602 18.1504C19.6602 19.1859 18.8207 20.0254 17.7852 20.0254C16.7497 20.0254 15.9102 19.1859 15.9102 18.1504C15.9102 17.1149 16.7497 16.2754 17.7852 16.2754C18.8207 16.2754 19.6602 17.1149 19.6602 18.1504Z" stroke="#89959D" stroke-width="1.25" stroke-linecap="round"/>
</svg>
