<svg width="34" height="34" viewBox="0 0 34 34" fill="none" xmlns="http://www.w3.org/2000/svg">
<path d="M12.815 23.1055C14.1112 24.706 15.7876 25.5754 17.6673 26.0542C18.6877 26.3145 21.3278 25.8696 22.0071 26.4667C23.4381 27.7634 25.0799 28.5838 26.9035 28.9976C27.0695 29.0349 27.2395 29.0587 27.4075 29.0847C27.6204 29.1182 27.7946 29.0549 27.9039 28.8405C28.0124 28.6261 27.9729 28.4311 27.8375 28.2539C27.6799 28.0485 27.5195 27.8446 27.3474 27.6555C26.8474 27.1085 26.4516 26.4652 26.1779 25.7622C25.9818 25.2581 26.2009 24.7117 26.6299 24.3821C26.7206 24.3124 26.8101 24.2414 26.8981 24.1678C27.7187 23.4883 28.4003 22.6753 28.8179 21.6421C29.496 19.967 29.3432 18.3502 28.4542 16.8129C27.7572 15.6075 26.8048 14.7433 25.6891 14.1189M7.07789 16.0001C7.1658 16.0736 7.25539 16.1446 7.34606 16.2143C7.77506 16.5439 7.99414 17.0903 7.79796 17.5944C7.52445 18.2974 7.12849 18.9407 6.62858 19.4877C6.45646 19.6768 6.29607 19.8807 6.13846 20.0861C6.00296 20.2634 5.96356 20.4585 6.0721 20.6727C6.18131 20.8871 6.35553 20.9504 6.56844 20.9169C6.73644 20.8909 6.90649 20.8671 7.0724 20.8298C8.8961 20.416 10.5379 19.5957 11.9689 18.2989C12.6481 17.7018 15.2883 18.1467 16.3087 17.8864C18.1884 17.4077 19.8648 16.5382 21.1609 14.9377C22.7605 12.962 22.8622 10.297 21.4063 8.21255C20.3909 6.76017 19.0208 5.84975 17.4488 5.28248C14.7616 4.31249 12.0732 4.36462 9.4158 5.41797C7.81262 6.05296 6.44391 7.05057 5.52173 8.64514C4.6327 10.1825 4.47995 11.7993 5.15811 13.4743C5.5757 14.5076 6.25733 15.3205 7.07789 16.0001Z" stroke="black" stroke-width="1.07471" stroke-linecap="round"/>
</svg>
