<svg width="20" height="16" viewBox="0 0 20 16" fill="none" xmlns="http://www.w3.org/2000/svg">
<path d="M1.67709 1.5L7.34611 7.3874M7.34611 7.3874L1.67709 14.5M7.34611 7.3874L8.6354 8.7263C9.4038 9.4435 10.5963 9.4435 11.3647 8.7263L12.72 7.3874M18.5 1.67709L12.72 7.3874M12.72 7.3874L18.5 14.3229M1.67709 14.5C2.02965 14.8112 2.49278 15 3 15H17C17.5973 15 18.1335 14.7381 18.5 14.3229M1.67709 14.5C1.26188 14.1335 1 13.5973 1 13V3C1 1.89543 1.89543 1 3 1H17C18.1046 1 19 1.89543 19 3V13C19 13.5072 18.8112 13.9703 18.5 14.3229" stroke="white" stroke-width="1.25" stroke-linecap="round"/>
</svg>
