<svg width="25" height="25" viewBox="0 0 25 25" fill="none" xmlns="http://www.w3.org/2000/svg">
<path d="M14.5833 9.6875V12.7083H17.2917C17.5 12.7083 17.6042 12.9167 17.6042 13.125L17.1875 15.1042C17.1875 15.2083 16.9792 15.3125 16.875 15.3125H14.5833V22.9167H11.4583V15.4167H9.6875C9.47917 15.4167 9.375 15.3125 9.375 15.1042V13.125C9.375 12.9167 9.47917 12.8125 9.6875 12.8125H11.4583V9.375C11.4583 7.60417 12.8125 6.25 14.5833 6.25H17.3958C17.6042 6.25 17.7083 6.35417 17.7083 6.5625V9.0625C17.7083 9.27083 17.6042 9.375 17.3958 9.375H14.8958C14.6875 9.375 14.5833 9.47917 14.5833 9.6875Z" stroke="white" stroke-width="1.5625" stroke-miterlimit="10" stroke-linecap="round"/>
<path d="M15.6237 22.9163H9.3737C4.16536 22.9163 2.08203 20.833 2.08203 15.6247V9.37467C2.08203 4.16634 4.16536 2.08301 9.3737 2.08301H15.6237C20.832 2.08301 22.9154 4.16634 22.9154 9.37467V15.6247C22.9154 20.833 20.832 22.9163 15.6237 22.9163Z" stroke="white" stroke-width="1.5625" stroke-linecap="round" stroke-linejoin="round"/>
</svg>
