<svg width="58" height="58" viewBox="0 0 58 58" fill="none" xmlns="http://www.w3.org/2000/svg">
<rect x="0.5" y="0.5" width="57" height="57" rx="9.5" stroke="black" stroke-dasharray="2 2"/>
<path d="M14.625 34.667L22.7849 26.5071C23.3869 25.9051 24.3631 25.9051 24.9651 26.5071L31.5833 33.1253M31.5833 33.1253L29.2708 35.4378M31.5833 33.1253L34.3474 30.3613C34.9494 29.7593 35.9256 29.7593 36.5276 30.3613L42.375 36.2087M17.7083 40.8337H39.2917C40.9946 40.8337 42.375 39.4532 42.375 37.7503V19.2503C42.375 17.5474 40.9946 16.167 39.2917 16.167H17.7083C16.0055 16.167 14.625 17.5474 14.625 19.2503V37.7503C14.625 39.4532 16.0055 40.8337 17.7083 40.8337ZM38.5208 23.1045C38.5208 24.8074 37.1404 26.1878 35.4375 26.1878C33.7346 26.1878 32.3542 24.8074 32.3542 23.1045C32.3542 21.4016 33.7346 20.0212 35.4375 20.0212C37.1404 20.0212 38.5208 21.4016 38.5208 23.1045Z" stroke="black" stroke-width="1.25" stroke-linecap="round"/>
</svg>
