<svg width="24" height="25" viewBox="0 0 24 25" fill="none" xmlns="http://www.w3.org/2000/svg">
<path d="M9 22.5H15C20 22.5 22 20.5 22 15.5V9.5C22 4.5 20 2.5 15 2.5H9C4 2.5 2 4.5 2 9.5V15.5C2 20.5 4 22.5 9 22.5Z" stroke="white" stroke-width="1.5" stroke-linecap="round" stroke-linejoin="round"/>
<path d="M11.9961 16C12.4557 16 12.9108 15.9095 13.3355 15.7336C13.7601 15.5577 14.146 15.2999 14.471 14.9749C14.796 14.6499 15.0538 14.264 15.2297 13.8394C15.4056 13.4148 15.4961 12.9596 15.4961 12.5C15.4961 12.0404 15.4056 11.5852 15.2297 11.1606C15.0538 10.736 14.796 10.3501 14.471 10.0251C14.146 9.70012 13.7601 9.44231 13.3355 9.26642C12.9108 9.09053 12.4557 9 11.9961 9C11.0678 9 10.1776 9.36875 9.52122 10.0251C8.86484 10.6815 8.49609 11.5717 8.49609 12.5C8.49609 13.4283 8.86484 14.3185 9.52122 14.9749C10.1776 15.6313 11.0678 16 11.9961 16Z" stroke="white" stroke-width="1.5" stroke-linecap="round" stroke-linejoin="round"/>
<path d="M17.6367 7.5H17.6485" stroke="white" stroke-width="2" stroke-linecap="round" stroke-linejoin="round"/>
</svg>
