<svg width="24" height="24" viewBox="0 0 24 24" fill="none" xmlns="http://www.w3.org/2000/svg">
<path d="M3.67709 5.5L9.34611 11.3874M9.34611 11.3874L3.67709 18.5M9.34611 11.3874L10.6354 12.7263C11.4038 13.4435 12.5963 13.4435 13.3647 12.7263L14.72 11.3874M20.5 5.67709L14.72 11.3874M14.72 11.3874L20.5 18.3229M3.67709 18.5C4.02965 18.8112 4.49278 19 5 19H19C19.5973 19 20.1335 18.7381 20.5 18.3229M3.67709 18.5C3.26188 18.1335 3 17.5973 3 17V7C3 5.89543 3.89543 5 5 5H19C20.1046 5 21 5.89543 21 7V17C21 17.5072 20.8112 17.9703 20.5 18.3229" stroke="white" stroke-width="1.25" stroke-linecap="round"/>
</svg>
