<svg width="35" height="35" viewBox="0 0 35 35" fill="none" xmlns="http://www.w3.org/2000/svg">
<path d="M21.6094 25.2299V25.9285C21.6094 28.7062 19.733 30.1198 17.4181 30.1198C15.1032 30.1198 13.2267 28.7062 13.2267 25.9285V25.2299M21.6094 25.2299H24.4554C26.7483 25.2299 28.0827 22.6068 26.8083 20.7006C25.8546 19.2741 24.9413 17.8189 24.485 16.8472M21.6094 25.2299H13.2267M13.2267 25.2299H10.3805C8.08749 25.2299 6.75305 22.6068 8.02749 20.7006C9.20211 18.9437 10.3153 17.1432 10.5892 16.2561C11.333 13.8464 11.0812 12.7619 11.0812 11.4199C11.0812 8.60595 12.8525 6.21296 15.3224 5.3326M26.4994 8.46448C26.4994 10.3935 24.9356 11.9573 23.0066 11.9573C21.0776 11.9573 19.5138 10.3935 19.5138 8.46448C19.5138 6.53546 21.0776 4.97168 23.0066 4.97168C24.9356 4.97168 26.4994 6.53546 26.4994 8.46448Z" stroke="black" stroke-width="1.07471" stroke-linecap="round"/>
</svg>
