<svg width="17" height="20" viewBox="0 0 17 20" fill="none" xmlns="http://www.w3.org/2000/svg">
<g clip-path="url(#clip0_93_8716)">
<path d="M15.5 8.2647C15.5 11.1109 11.9774 15.8245 9.93 18.3238C9.1809 19.2382 7.8191 19.2382 7.07 18.3238C5.02261 15.8245 1.5 11.1109 1.5 8.2647C1.5 4.25252 4.63401 1 8.5 1C12.366 1 15.5 4.25252 15.5 8.2647Z" stroke="white" stroke-width="1.25" stroke-linecap="round"/>
<path d="M11.0984 8.00044C11.0984 9.43634 9.93435 10.6004 8.49845 10.6004C7.06255 10.6004 5.89844 9.43634 5.89844 8.00044C5.89844 6.56445 7.06255 5.40039 8.49845 5.40039C9.93435 5.40039 11.0984 6.56445 11.0984 8.00044Z" stroke="white" stroke-width="1.25" stroke-linecap="round"/>
</g>
<defs>
<clipPath id="clip0_93_8716">
<rect width="17" height="20" fill="white"/>
</clipPath>
</defs>
</svg>
