<svg width="32" height="32" viewBox="0 0 32 32" fill="none" xmlns="http://www.w3.org/2000/svg">
<path d="M26.4459 9.66016H5.81152V23.5626C5.81152 25.0315 5.81152 25.7659 6.10191 26.3249C6.34662 26.796 6.73073 27.1801 7.20183 27.4248C7.76086 27.7152 8.49531 27.7152 9.96419 27.7152H22.2932C23.7621 27.7152 24.4966 27.7152 25.0555 27.4248C25.5266 27.1801 25.9108 26.796 26.1555 26.3249C26.4459 25.7659 26.4459 25.0315 26.4459 23.5626V9.66016Z" stroke="black" stroke-width="1.07471" stroke-linecap="round"/>
<path d="M21.8956 4.50195H10.3618C9.95129 4.50195 9.74603 4.50195 9.55997 4.55946C9.40207 4.60826 9.25501 4.68697 9.12682 4.79127C8.97575 4.91419 8.8619 5.08498 8.63419 5.42654L5.81152 9.66054H26.4459L23.6232 5.42654C23.3955 5.08498 23.2816 4.91419 23.1306 4.79127C23.0024 4.68697 22.8554 4.60826 22.6974 4.55946C22.5114 4.50195 22.3061 4.50195 21.8956 4.50195Z" stroke="black" stroke-width="1.07471" stroke-linecap="round"/>
<path d="M10.9697 13.5293C12.8324 18.186 19.4243 18.186 21.2869 13.5293" stroke="black" stroke-width="1.07471" stroke-linecap="round"/>
</svg>
