<svg width="32" height="32" viewBox="0 0 32 32" fill="none" xmlns="http://www.w3.org/2000/svg">
<path d="M4.52148 6.92773L6.9351 7.73228C7.832 8.03123 8.49346 8.79694 8.65893 9.72774L10.0756 17.6964C10.2944 18.9274 11.3647 19.8242 12.6151 19.8242H22.4424C23.5912 19.8242 24.6016 19.0645 24.9204 17.9608L26.7832 11.5125C27.2596 9.8632 26.022 8.21738 24.3052 8.21738H12.2594M13.549 24.338C13.549 25.4063 12.6829 26.2724 11.6145 26.2724C10.5462 26.2724 9.68007 25.4063 9.68007 24.338C9.68007 23.2696 10.5462 22.4035 11.6145 22.4035C12.6829 22.4035 13.549 23.2696 13.549 24.338ZM23.8662 24.338C23.8662 25.4063 23.0001 26.2724 21.9317 26.2724C20.8634 26.2724 19.9973 25.4063 19.9973 24.338C19.9973 23.2696 20.8634 22.4035 21.9317 22.4035C23.0001 22.4035 23.8662 23.2696 23.8662 24.338Z" stroke="black" stroke-width="1.07471" stroke-linecap="round"/>
</svg>
