<svg width="45" height="46" viewBox="0 0 45 46" fill="none" xmlns="http://www.w3.org/2000/svg">
<path d="M12.5846 20.917L20.918 2.16699C22.5756 2.16699 24.1653 2.82547 25.3374 3.99758C26.5095 5.16968 27.168 6.75939 27.168 8.41699V16.7503H38.9596C39.5636 16.7435 40.1619 16.868 40.7129 17.1154C41.264 17.3627 41.7547 17.7269 42.151 18.1826C42.5473 18.6384 42.8399 19.175 43.0083 19.755C43.1767 20.3351 43.2169 20.9448 43.1263 21.542L40.2513 40.292C40.1006 41.2855 39.596 42.1912 38.8303 42.842C38.0646 43.4928 37.0895 43.845 36.0846 43.8337H12.5846M12.5846 20.917V43.8337M12.5846 20.917H6.33464C5.22957 20.917 4.16976 21.356 3.38836 22.1374C2.60696 22.9188 2.16797 23.9786 2.16797 25.0837V39.667C2.16797 40.7721 2.60696 41.8319 3.38836 42.6133C4.16976 43.3947 5.22957 43.8337 6.33464 43.8337H12.5846" stroke="#D33030" stroke-width="3" stroke-linecap="round" stroke-linejoin="round"/>
</svg>
